<svg width="41" height="40" viewBox="0 0 41 40" fill="none" xmlns="http://www.w3.org/2000/svg">
<rect opacity="0.2" x="0.26355" width="39.8159" height="40" rx="19.908" fill="#FDB52A"/>
<path d="M13.2816 25.9874C13.2816 23.5366 15.2684 21.5498 17.7192 21.5498H22.6236C25.0744 21.5498 27.0612 23.5366 27.0612 25.9874V25.9874C27.0612 26.8043 26.3989 27.4666 25.582 27.4666H14.7608C13.9439 27.4666 13.2816 26.8043 13.2816 25.9874V25.9874Z" fill="#FDB52A"/>
<path d="M20.1741 20.4225C22.3425 20.4225 24.1004 18.6565 24.1004 16.478C24.1004 14.2995 22.3425 12.5334 20.1741 12.5334C18.0056 12.5334 16.2477 14.2995 16.2477 16.478C16.2477 18.6565 18.0056 20.4225 20.1741 20.4225Z" fill="#FDB52A"/>
</svg>
